<?xml version="1.0" encoding="UTF-8" standalone="no"?>
<!-- Created with Inkscape (http://www.inkscape.org/) -->

<svg
   width="69.200439mm"
   height="69.216232mm"
   viewBox="0 0 69.200439 69.216232"
   version="1.1"
   id="svg5"
   xml:space="preserve"
   inkscape:version="1.2.2 (732a01da63, 2022-12-09)"
   sodipodi:docname="expressjs.svg"
   xmlns:inkscape="http://www.inkscape.org/namespaces/inkscape"
   xmlns:sodipodi="http://sodipodi.sourceforge.net/DTD/sodipodi-0.dtd"
   xmlns="http://www.w3.org/2000/svg"
   xmlns:svg="http://www.w3.org/2000/svg"><sodipodi:namedview
     id="namedview7"
     pagecolor="#ffffff"
     bordercolor="#000000"
     borderopacity="0.25"
     inkscape:showpageshadow="2"
     inkscape:pageopacity="0.0"
     inkscape:pagecheckerboard="0"
     inkscape:deskcolor="#d1d1d1"
     inkscape:document-units="mm"
     showgrid="false"
     inkscape:zoom="0.89263468"
     inkscape:cx="287.3516"
     inkscape:cy="323.76067"
     inkscape:window-width="3200"
     inkscape:window-height="1369"
     inkscape:window-x="-8"
     inkscape:window-y="1072"
     inkscape:window-maximized="1"
     inkscape:current-layer="layer1" /><defs
     id="defs2" /><g
     inkscape:label="Layer 1"
     inkscape:groupmode="layer"
     id="layer1"
     transform="translate(-10.623416,-14.477226)"><path
       style="fill:#f9f9f9;stroke-width:1"
       d="M 42.84598,83.668972 C 37.787154,83.280603 33.6615,82.180357 29.665098,80.153837 23.998448,77.280356 18.772972,72.389379 15.36514,66.76926 13.045237,62.943326 11.536051,58.666422 10.912909,54.152008 10.672183,52.40805 10.623416,51.553179 10.623416,49.077311 c 0,-2.475871 0.04877,-3.330742 0.289493,-5.0747 0.830794,-6.018762 3.179495,-11.470731 7.017161,-16.28872 3.337564,-4.190137 7.473701,-7.565955 12.040467,-9.827146 3.727528,-1.84565 7.337579,-2.857021 11.846308,-3.318794 1.181107,-0.120966 5.632474,-0.120966 6.813582,0 4.50873,0.461773 8.11878,1.473144 11.846309,3.318794 6.753534,3.343948 12.593517,9.183931 15.937465,15.937466 1.845649,3.727529 2.857021,7.337579 3.318794,11.846309 0.05547,0.54158 0.09086,1.868697 0.09086,3.406791 0,2.475868 -0.04877,3.330739 -0.289491,5.074697 -0.830136,6.013979 -3.18119,11.473963 -7.009782,16.279204 -0.990078,1.242642 -2.22545,2.605752 -3.286721,3.626572 -5.77118,5.551205 -12.274994,8.618111 -20.110613,9.483262 -0.976217,0.107788 -5.376311,0.197403 -6.28127,0.127926 z M 34.749932,62.284796 c 3.687001,-0.653529 6.713181,-3.017175 7.868083,-6.145491 0.172799,-0.468072 0.407455,-1.249872 0.505943,-1.685654 l 0.04411,-0.195179 h -2.052706 -2.052708 l -0.155382,0.514567 c -0.649734,2.151665 -2.688428,3.701543 -5.288016,4.020116 -4.366603,0.535113 -7.884909,-1.538505 -8.942135,-5.270309 -0.21613,-0.762898 -0.391054,-2.038747 -0.391054,-2.852238 v -0.599651 h 9.652574 9.652573 v -0.737716 c 0,-2.010889 -0.47816,-4.585253 -1.18126,-6.359765 -1.554465,-3.92322 -4.459913,-6.468631 -8.151925,-7.141754 -1.112288,-0.202791 -3.56026,-0.186732 -4.636608,0.03042 -3.632361,0.732812 -6.538118,2.981045 -8.227953,6.3661 -0.646115,1.294294 -1.065642,2.604183 -1.342136,4.190562 -0.156184,0.896088 -0.17662,3.636023 -0.03465,4.645804 0.538155,3.827822 1.7088,6.435031 3.770126,8.396648 1.699922,1.617698 3.826468,2.580832 6.461149,2.926324 1.098092,0.143994 3.407153,0.09128 4.50198,-0.102781 z M 24.286351,46.53996 c 0.0016,-0.643023 0.406889,-2.217231 0.788514,-3.061793 0.704538,-1.559195 2.232041,-3.037064 3.738787,-3.617296 1.128815,-0.434696 1.348692,-0.470202 2.889284,-0.466567 1.338984,0.0032 1.455724,0.01438 2.058268,0.197645 1.988168,0.604737 3.478956,1.807831 4.410877,3.559659 0.520018,0.977535 0.947721,2.438155 0.947721,3.2365 v 0.276057 h -7.416866 c -7.016477,0 -7.416853,-0.0067 -7.416585,-0.124205 z m 29.409725,10.377751 3.747304,-5.573838 0.192535,0.268471 c 0.105894,0.147659 1.768312,2.615963 3.694262,5.485119 1.92595,2.869157 3.538849,5.256953 3.584218,5.306214 0.06426,0.06977 0.690793,0.08546 2.835494,0.07097 l 2.753006,-0.01859 -5.156986,-7.192441 c -2.836341,-3.955845 -5.141711,-7.23224 -5.123046,-7.280879 0.01867,-0.04864 2.081048,-2.825488 4.583073,-6.170774 2.502025,-3.345284 4.549136,-6.097311 4.549136,-6.115616 0,-0.0183 -1.159545,-0.03328 -2.576765,-0.03328 h -2.576768 l -3.363402,4.721263 c -2.670377,3.74845 -3.381103,4.702684 -3.449314,4.631106 -0.04725,-0.04959 -1.512639,-2.174155 -3.256418,-4.721262 l -3.170507,-4.631107 h -2.770832 -2.770831 l 0.10642,0.162418 c 0.05853,0.08933 2.155045,2.949501 4.658921,6.355936 2.771613,3.770679 4.532486,6.22678 4.501334,6.278544 -0.02814,0.04677 -2.259016,3.18308 -4.9575,6.969587 -2.698485,3.786506 -4.929879,6.92448 -4.958655,6.973275 -0.04147,0.07032 0.490125,0.08872 2.562849,0.08872 h 2.615171 z"
       id="path1872" /></g></svg>
