<?xml version="1.0" encoding="UTF-8" standalone="no"?>
<svg
   width="32"
   height="32"
   viewBox="0 0 32 32"
   fill="none"
   version="1.1"
   id="svg8"
   sodipodi:docname="mobile.svg"
   inkscape:version="1.2.2 (732a01da63, 2022-12-09)"
   xmlns:inkscape="http://www.inkscape.org/namespaces/inkscape"
   xmlns:sodipodi="http://sodipodi.sourceforge.net/DTD/sodipodi-0.dtd"
   xmlns="http://www.w3.org/2000/svg"
   xmlns:svg="http://www.w3.org/2000/svg">
  <defs
     id="defs12" />
  <sodipodi:namedview
     id="namedview10"
     pagecolor="#ffffff"
     bordercolor="#000000"
     borderopacity="0.25"
     inkscape:showpageshadow="2"
     inkscape:pageopacity="0.0"
     inkscape:pagecheckerboard="0"
     inkscape:deskcolor="#d1d1d1"
     showgrid="false"
     inkscape:zoom="31.3125"
     inkscape:cx="11.96008"
     inkscape:cy="16"
     inkscape:window-width="3200"
     inkscape:window-height="1369"
     inkscape:window-x="-8"
     inkscape:window-y="1072"
     inkscape:window-maximized="1"
     inkscape:current-layer="svg8" />
  <path
     fill-rule="evenodd"
     clip-rule="evenodd"
     d="M10 4C9.44772 4 9 4.44772 9 5V27C9 27.5523 9.44772 28 10 28H22C22.5523 28 23 27.5523 23 27V5C23 4.44772 22.5523 4 22 4H10ZM7 5C7 3.34315 8.34315 2 10 2H22C23.6569 2 25 3.34315 25 5V27C25 28.6569 23.6569 30 22 30H10C8.34315 30 7 28.6569 7 27V5Z"
     fill="black"
     id="path2"
     style="fill:#f9f9f9" />
  <path
     fill-rule="evenodd"
     clip-rule="evenodd"
     d="M7 7C7 6.44772 7.44772 6 8 6H24C24.5523 6 25 6.44772 25 7C25 7.55228 24.5523 8 24 8H8C7.44772 8 7 7.55228 7 7Z"
     fill="black"
     id="path4"
     style="fill:#f9f9f9" />
  <path
     fill-rule="evenodd"
     clip-rule="evenodd"
     d="M7 25C7 24.4477 7.44772 24 8 24H24C24.5523 24 25 24.4477 25 25C25 25.5523 24.5523 26 24 26H8C7.44772 26 7 25.5523 7 25Z"
     fill="black"
     id="path6"
     style="fill:#f9f9f9" />
</svg>
